<svg xmlns="http://www.w3.org/2000/svg" viewBox="0 0 200 150" width="200" height="150">
  <defs>
    <linearGradient id="grad1" x1="0%" y1="0%" x2="100%" y2="100%">
      <stop offset="0%" style="stop-color:#4364F7;stop-opacity:1" />
      <stop offset="100%" style="stop-color:#0052D4;stop-opacity:1" />
    </linearGradient>
    <linearGradient id="grad2" x1="0%" y1="0%" x2="100%" y2="100%">
      <stop offset="0%" style="stop-color:#6FB1FC;stop-opacity:1" />
      <stop offset="100%" style="stop-color:#4364F7;stop-opacity:1" />
    </linearGradient>
  </defs>
  <!-- Abstract background shapes -->
  <path d="M 0,50 Q 50,0 100,50 T 200,50 L 200,150 L 0,150 Z" fill="url(#grad1)" opacity="0.1"/>
  <circle cx="150" cy="30" r="40" fill="url(#grad2)" opacity="0.15"/>

  <!-- Central fiber optic cable representation -->
  <path d="M 30,75 Q 100,50 170,75" stroke="url(#grad1)" stroke-width="10" fill="none" stroke-linecap="round"/>
  <path d="M 40,90 Q 100,115 160,90" stroke="url(#grad2)" stroke-width="8" fill="none" stroke-linecap="round"/>

  <!-- Light/data particles -->
  <circle cx="50" cy="70" r="3" fill="#ffffff"/>
  <circle cx="80" cy="62" r="2.5" fill="#ffffff"/>
  <circle cx="110" cy="60" r="3" fill="#ffffff"/>
  <circle cx="140" cy="65" r="2" fill="#ffffff"/>
  <circle cx="160" cy="72" r="2.5" fill="#ffffff"/>

  <circle cx="60" cy="98" r="2" fill="#ffffff"/>
  <circle cx="90" cy="105" r="2.5" fill="#ffffff"/>
  <circle cx="120" cy="103" r="2" fill="#ffffff"/>
  <circle cx="145" cy="95" r="2.5" fill="#ffffff"/>
</svg>
